<svg id="kity_svg_6" xmlns="http://www.w3.org/2000/svg" xmlns:xlink="http://www.w3.org/1999/xlink" version="1.1" width="910" height="549" style="background: rgb(251, 251, 251); visibility: visible;" viewBox="0 0 910 549"><defs id="kity_defs_7"><linearGradient id="kity_linearGradient_17" x1="0" y1="0" x2="0" y2="1"><stop id="kity_stop_18" offset="0" stop-color="rgb(255, 255, 255)"></stop><stop id="kity_stop_19" offset="1" stop-color="rgb(204, 204, 204)"></stop></linearGradient><marker id="kity_marker_2" orient="auto" refX="6" refY="0" viewBox="-7 -7 14 14" markerWidth="7" markerHeight="7" markerUnits="userSpaceOnUse"><path id="kity_path_3" fill="rgb(115, 161, 191)" stroke="none" d="M6,0A6,6,0,1,1,-6,0A6,6,0,1,1,6,0"></path></marker></defs><g id="kity_g_8"><g id="minder1" text-rendering="optimize-speed"><g id="minder_connect_group1"><path id="kity_path_31" fill="none" stroke="rgb(115, 161, 191)" stroke-width="1" d="M409.50002415148833,344.49999785517355A60,160,0,0,1,469.50002415148833,184.49999785517355"></path><path id="kity_path_33" fill="none" stroke="rgb(115, 161, 191)" stroke-width="1" d="M592.5000241514883,184.49999785517355C595.5000241514883,184.49999785517355,595.5000241514883,102.49999785517355,598.5000241514883,102.49999785517355L667.5000241514883,102.49999785517355"></path><path id="kity_path_35" fill="none" stroke="rgb(115, 161, 191)" stroke-width="1" d="M667.5000241514883,102.49999785517355C670.5000241514883,102.49999785517355,670.5000241514883,53.49999785517355,673.5000241514883,53.49999785517355L794.5000241514883,53.49999785517355"></path><path id="kity_path_37" fill="none" stroke="rgb(115, 161, 191)" stroke-width="1" d="M667.5000241514883,102.49999785517355C670.5000241514883,102.49999785517355,670.5000241514883,91.49999785517355,673.5000241514883,91.49999785517355L812.5000241514883,91.49999785517355"></path><path id="kity_path_39" fill="none" stroke="rgb(115, 161, 191)" stroke-width="1" d="M667.5000241514883,102.49999785517355C670.5000241514883,102.49999785517355,670.5000241514883,129.49999785517355,673.5000241514883,129.49999785517355L770.5000241514883,129.49999785517355"></path><path id="kity_path_41" fill="none" stroke="rgb(115, 161, 191)" stroke-width="1" d="M667.5000241514883,102.49999785517355C670.5000241514883,102.49999785517355,670.5000241514883,155.49999785517355,673.5000241514883,155.49999785517355L717.5000241514883,155.49999785517355"></path><path id="kity_path_43" fill="none" stroke="rgb(115, 161, 191)" stroke-width="1" d="M592.5000241514883,184.49999785517355C595.5000241514883,184.49999785517355,595.5000241514883,193.49999785517355,598.5000241514883,193.49999785517355L720.5000241514883,193.49999785517355"></path><path id="kity_path_45" fill="none" stroke="rgb(115, 161, 191)" stroke-width="1" d="M592.5000241514883,184.49999785517355C595.5000241514883,184.49999785517355,595.5000241514883,299.49999785517355,598.5000241514883,299.49999785517355L687.5000241514883,299.49999785517355"></path><path id="kity_path_47" fill="none" stroke="rgb(115, 161, 191)" stroke-width="1" d="M687.5000241514883,299.49999785517355C690.5000241514883,299.49999785517355,690.5000241514883,231.49999785517355,693.5000241514883,231.49999785517355L879.5000241514883,231.49999785517355"></path><path id="kity_path_49" fill="none" stroke="rgb(115, 161, 191)" stroke-width="1" d="M687.5000241514883,299.49999785517355C690.5000241514883,299.49999785517355,690.5000241514883,269.49999785517355,693.5000241514883,269.49999785517355L803.5000241514883,269.49999785517355"></path><path id="kity_path_51" fill="none" stroke="rgb(115, 161, 191)" stroke-width="1" d="M687.5000241514883,299.49999785517355C690.5000241514883,299.49999785517355,690.5000241514883,295.49999785517355,693.5000241514883,295.49999785517355L768.5000241514883,295.49999785517355"></path><path id="kity_path_53" fill="none" stroke="rgb(115, 161, 191)" stroke-width="1" d="M687.5000241514883,299.49999785517355C690.5000241514883,299.49999785517355,690.5000241514883,333.49999785517355,693.5000241514883,333.49999785517355L814.5000241514883,333.49999785517355"></path><path id="kity_path_55" fill="none" stroke="rgb(115, 161, 191)" stroke-width="1" d="M687.5000241514883,299.49999785517355C690.5000241514883,299.49999785517355,690.5000241514883,371.49999785517355,693.5000241514883,371.49999785517355L891.5000241514883,371.49999785517355"></path><path id="kity_path_57" fill="none" stroke="rgb(115, 161, 191)" stroke-width="1" d="M409.50002415148833,344.49999785517355A60,160,0,0,0,469.50002415148833,504.49999785517355"></path><path id="kity_path_65" fill="none" stroke="rgb(115, 161, 191)" stroke-width="1" d="M409.50002415148833,344.49999785517355A60,71,0,0,0,349.50002415148833,273.49999785517355"></path><path id="kity_path_67" fill="none" stroke="rgb(115, 161, 191)" stroke-width="1" d="M254.50002415148833,273.49999785517355C251.50002415148833,273.49999785517355,251.50002415148833,228.49999785517355,248.50002415148833,228.49999785517355L192.50002415148833,228.49999785517355"></path><path id="kity_path_69" fill="none" stroke="rgb(115, 161, 191)" stroke-width="1" d="M192.50002415148833,228.49999785517355C189.50002415148833,228.49999785517355,189.50002415148833,190.49999785517355,186.50002415148833,190.49999785517355L95.50002415148833,190.49999785517355"></path><path id="kity_path_71" fill="none" stroke="rgb(115, 161, 191)" stroke-width="1" d="M192.50002415148833,228.49999785517355C189.50002415148833,228.49999785517355,189.50002415148833,228.49999785517355,186.50002415148833,228.49999785517355L33.50002415148833,228.49999785517355"></path><path id="kity_path_73" fill="none" stroke="rgb(115, 161, 191)" stroke-width="1" d="M192.50002415148833,228.49999785517355C189.50002415148833,228.49999785517355,189.50002415148833,266.49999785517355,186.50002415148833,266.49999785517355L94.50002415148833,266.49999785517355"></path><path id="kity_path_75" fill="none" stroke="rgb(115, 161, 191)" stroke-width="1" d="M254.50002415148833,273.49999785517355C251.50002415148833,273.49999785517355,251.50002415148833,304.49999785517355,248.50002415148833,304.49999785517355L104.50002415148833,304.49999785517355"></path><path id="kity_path_77" fill="none" stroke="rgb(115, 161, 191)" stroke-width="1" d="M254.50002415148833,273.49999785517355C251.50002415148833,273.49999785517355,251.50002415148833,342.49999785517355,248.50002415148833,342.49999785517355L20.500024151488333,342.49999785517355"></path><path id="kity_path_79" fill="none" stroke="rgb(115, 161, 191)" stroke-width="1" d="M409.50002415148833,344.49999785517355A60,81,0,0,0,469.50002415148833,425.49999785517355"></path><path id="kity_path_85" fill="none" stroke="rgb(115, 161, 191)" stroke-width="1" d="M409.50002415148833,344.49999785517355A60,71,0,0,1,349.50002415148833,415.49999785517355"></path><path id="kity_path_87" fill="none" stroke="rgb(115, 161, 191)" stroke-width="1" d="M253.50002415148833,415.49999785517355C250.50002415148833,415.49999785517355,250.50002415148833,376.49999785517355,247.50002415148833,376.49999785517355L94.50002415148833,376.49999785517355"></path><path id="kity_path_89" fill="none" stroke="rgb(115, 161, 191)" stroke-width="1" d="M253.50002415148833,415.49999785517355C250.50002415148833,415.49999785517355,250.50002415148833,414.49999785517355,247.50002415148833,414.49999785517355L21.500024151488333,414.49999785517355"></path><path id="kity_path_91" fill="none" stroke="rgb(115, 161, 191)" stroke-width="1" d="M253.50002415148833,415.49999785517355C250.50002415148833,415.49999785517355,250.50002415148833,479.49999785517355,247.50002415148833,479.49999785517355L130.50002415148833,479.49999785517355"></path><path id="kity_path_93" fill="none" stroke="rgb(115, 161, 191)" stroke-width="1" d="M130.50002415148833,479.49999785517355C127.50002415148833,479.49999785517355,127.50002415148833,440.49999785517355,124.50002415148833,440.49999785517355L55.50002415148833,440.49999785517355"></path><path id="kity_path_95" fill="none" stroke="rgb(115, 161, 191)" stroke-width="1" d="M130.50002415148833,479.49999785517355C127.50002415148833,479.49999785517355,127.50002415148833,466.49999785517355,124.50002415148833,466.49999785517355L56.50002415148833,466.49999785517355"></path><path id="kity_path_97" fill="none" stroke="rgb(115, 161, 191)" stroke-width="1" d="M130.50002415148833,479.49999785517355C127.50002415148833,479.49999785517355,127.50002415148833,492.49999785517355,124.50002415148833,492.49999785517355L31.500024151488333,492.49999785517355"></path><path id="kity_path_99" fill="none" stroke="rgb(115, 161, 191)" stroke-width="1" d="M130.50002415148833,479.49999785517355C127.50002415148833,479.49999785517355,127.50002415148833,518.4999978551735,124.50002415148833,518.4999978551735L56.50002415148833,518.4999978551735"></path><path id="kity_path_415" fill="none" stroke="rgb(115, 161, 191)" stroke-width="1" d="M593.5000241514883,425.49999785517355C596.5000241514883,425.49999785517355,596.5000241514883,405.49999785517355,599.5000241514883,405.49999785517355L667.5000241514883,405.49999785517355"></path><path id="kity_path_416" fill="none" stroke="rgb(115, 161, 191)" stroke-width="1" d="M593.5000241514883,425.49999785517355C596.5000241514883,425.49999785517355,596.5000241514883,443.49999785517355,599.5000241514883,443.49999785517355L728.5000241514883,443.49999785517355"></path><path id="kity_path_417" fill="none" stroke="rgb(115, 161, 191)" stroke-width="1" d="M592.5000241514883,504.49999785517355C595.5000241514883,504.49999785517355,595.5000241514883,503.49999785517355,598.5000241514883,503.49999785517355L657.5000241514883,503.49999785517355"></path><path id="kity_path_418" fill="none" stroke="rgb(115, 161, 191)" stroke-width="1" d="M592.5000241514883,504.49999785517355C595.5000241514883,504.49999785517355,595.5000241514883,529.4999978551735,598.5000241514883,529.4999978551735L667.5000241514883,529.4999978551735"></path><path id="kity_path_425" fill="none" stroke="rgb(115, 161, 191)" stroke-width="1" d="M593.5000241514883,425.49999785517355C596.5000241514883,425.49999785517355,596.5000241514883,469.49999785517355,599.5000241514883,469.49999785517355L668.5000241514883,469.49999785517355"></path></g><g id="minder_node1"><path id="node_outline1" fill="rgb(115, 161, 191)" stroke="rgb(115, 161, 191)" d="M370.50002415148833,330.49999785517355h78a5,5,0,0,1,5,5v18a5,5,0,0,1,-5,5h-78a5,5,0,0,1,-5,-5v-18a5,5,0,0,1,5,-5z" stroke-width="3"></path><g id="node_text1" fill="white"><text id="kity_text_22" text-rendering="inherit" font-size="16" dy=".8em" y="334.0999977994589" x="377.50002415148833">矩阵代数</text></g></g><g id="kity_g_12" display="none"><path id="kity_path_13" fill="none" stroke="none" d="M377.50002415148833,344.49999785517355h0v0h0z"></path></g><g id="kity_g_14" display="none"><path id="kity_path_15" fill="rgba(0, 92, 153, 0.5)" stroke="none" d="M140.50002415148833,176.49999785517355h93v20h-93z"></path><path id="kity_path_16" fill="none" stroke="rgb(0, 76, 128)" d="M140.50002415148833,196.49999785517355L233.50002415148833,196.49999785517355" stroke-width="1"></path></g><g id="minder_node2"><g id="node_expander13" style="cursor: pointer;"><path id="kity_path_347" fill="white" stroke="gray" d="M470.50002792791315,184.49999414086312A6,6,0,1,1,458.50002792791315,184.49999414086312A6,6,0,1,1,470.50002792791315,184.49999414086312"></path><path id="kity_path_348" fill="none" stroke="gray" d="M460.00002792791315,184.49999414086312L469.00002792791315,184.49999414086312"></path></g><path id="node_outline14" fill="rgb(238, 243, 246)" stroke="rgb(115, 161, 191)" d="M474.5000273782955,168.49999414086312h115a3,3,0,0,1,3,3v26a3,3,0,0,1,-3,3h-115a3,3,0,0,1,-3,-3v-26a3,3,0,0,1,3,-3z" stroke-width="1"></path><g id="node_text14" fill="black"><text id="kity_text_125" text-rendering="inherit" font-size="14" dy=".8em" y="175.3999941862254" x="516.5000273782955">矩阵运算</text></g><g id="node_priority4"><path id="kity_path_187" fill="#840023" stroke="none" d="M492.000026495833,187.99999379484248c0,3.866,3.134,7,7,7h6c3.866,0,7,-3.134,7,-7V181.99999379484248H492.000026495833V187.99999379484248z"></path><path id="kity_path_188" fill="#FF1200" stroke="none" d="M512.000026495833,184.99999379484248c0,3.866,-3.134,7,-7,7H499.000026495833c-3.866,0,-7,-3.134,-7,-7V181.99999379484248c0,-3.866,3.134,-7,7,-7h6c3.866,0,7,3.134,7,7V184.99999379484248z" opacity="0.8"></path><text id="kity_text_189" text-rendering="geometricPrecision" x="501.0000264842258" y="184.49999378323525" text-anchor="middle" font-style="italic" font-size="12" fill="white" dy="5">1</text></g></g><g id="minder_node3"><g id="node_expander5" style="cursor: pointer;"><path id="kity_path_323" fill="white" stroke="gray" d="M608.5000281199027,86.49999186584796A6,6,0,1,1,596.5000281199027,86.49999186584796A6,6,0,1,1,608.5000281199027,86.49999186584796"></path><path id="kity_path_324" fill="none" stroke="gray" d="M598.0000281199027,86.49999186584796L607.0000281199027,86.49999186584796"></path></g><path id="node_outline6" fill="none" stroke="none" d="M613.5000302104572,73.49999186584796h49a5,5,0,0,1,5,5v16a5,5,0,0,1,-5,5h-49a5,5,0,0,1,-5,-5v-16a5,5,0,0,1,5,-5z"></path><g id="node_text6" fill="black"><text id="kity_text_109" text-rendering="inherit" font-size="12" dy=".8em" y="78.6999918868037" x="638.5000302104572">乘法</text></g><g id="node_priority1"><path id="kity_path_172" fill="#840023" stroke="none" d="M614.0000293279948,89.99999151982732c0,3.866,3.134,7,7,7h6c3.866,0,7,-3.134,7,-7V83.99999151982732H614.0000293279948V89.99999151982732z"></path><path id="kity_path_173" fill="#FF1200" stroke="none" d="M634.0000293279948,86.99999151982732c0,3.866,-3.134,7,-7,7H621.0000293279948c-3.866,0,-7,-3.134,-7,-7V83.99999151982732c0,-3.866,3.134,-7,7,-7h6c3.866,0,7,3.134,7,7V86.99999151982732z" opacity="0.8"></path><text id="kity_text_174" text-rendering="geometricPrecision" x="623.0000293163876" y="86.49999150822009" text-anchor="middle" font-style="italic" font-size="12" fill="white" dy="5">1</text></g></g><g id="minder_node4"><g id="node_expander1" style="cursor: pointer;" display="none"><path id="kity_path_311" fill="white" stroke="gray" d="M683.500031178562,35.49999068191153A6,6,0,1,1,671.500031178562,35.49999068191153A6,6,0,1,1,683.500031178562,35.49999068191153"></path><path id="kity_path_312" fill="none" stroke="gray"></path></g><path id="node_outline2" fill="none" stroke="none" d="M688.5000313711791,20.499990681911527h101a5,5,0,0,1,5,5v20a5,5,0,0,1,-5,5h-101a5,5,0,0,1,-5,-5v-20a5,5,0,0,1,5,-5z"></path><g id="node_text2" fill="black"><text id="kity_text_101" text-rendering="inherit" font-size="12" dy=".8em" y="27.699990702867268" x="688.5000313711791">标量乘法</text></g><g id="kity_g_210"><g id="kity_g_211"><path id="kity_path_212" fill="rgb(255, 244, 179)" stroke="none" d="M741.5000316604185,22.499990658697087h48v24h-48z"></path><text id="kity_text_213" text-rendering="geometricPrecision" font-size="12" dy="5" x="749.5000316604185" fill="rgb(77, 65, 0)" y="34.49999065869709">定理1</text></g></g></g><g id="minder_node5"><g id="node_expander2" style="cursor: pointer;" display="none"><path id="kity_path_314" fill="white" stroke="gray" d="M683.500031178562,73.49999156406022A6,6,0,1,1,671.500031178562,73.49999156406022A6,6,0,1,1,683.500031178562,73.49999156406022"></path><path id="kity_path_315" fill="none" stroke="gray"></path></g><path id="node_outline3" fill="none" stroke="none" d="M688.5000313711791,58.499991564060224h119a5,5,0,0,1,5,5v20a5,5,0,0,1,-5,5h-119a5,5,0,0,1,-5,-5v-20a5,5,0,0,1,5,-5z"></path><g id="node_text3" fill="black"><text id="kity_text_103" text-rendering="inherit" font-size="12" dy=".8em" y="65.69999158501597" x="688.5000313711791">矩阵乘法</text></g><g id="kity_g_214"><g id="kity_g_215"><path id="kity_path_216" fill="rgb(255, 179, 251)" stroke="none" d="M742.5000324992754,60.499991540845784h65v24h-65z"></path><text id="kity_text_217" text-rendering="geometricPrecision" font-size="12" dy="5" x="750.5000324992754" fill="rgb(77, 0, 73)" y="72.49999154084578">行列法则</text></g></g></g><g id="minder_node6"><g id="node_expander3" style="cursor: pointer;" display="none"><path id="kity_path_317" fill="white" stroke="gray" d="M683.500031178562,111.49999244620898A6,6,0,1,1,671.500031178562,111.49999244620898A6,6,0,1,1,683.500031178562,111.49999244620898"></path><path id="kity_path_318" fill="none" stroke="gray"></path></g><path id="node_outline4" fill="none" stroke="none" d="M688.5000313711791,96.49999244620898h77a5,5,0,0,1,5,5v20a5,5,0,0,1,-5,5h-77a5,5,0,0,1,-5,-5v-20a5,5,0,0,1,5,-5z"></path><g id="node_text4" fill="black"><text id="kity_text_105" text-rendering="inherit" font-size="12" dy=".8em" y="103.69999246716472" x="688.5000313711791">性质</text></g><g id="kity_g_218"><g id="kity_g_219"><path id="kity_path_220" fill="rgb(236, 255, 179)" stroke="none" d="M717.5000316052058,98.49999242299454h48v24h-48z"></path><text id="kity_text_221" text-rendering="geometricPrecision" font-size="12" dy="5" x="725.5000316052058" fill="rgb(57, 77, 0)" y="110.49999242299454">定理2</text></g></g></g><g id="minder_node7"><g id="node_expander4" style="cursor: pointer;" display="none"><path id="kity_path_320" fill="white" stroke="gray" d="M683.500031178562,143.4999931890711A6,6,0,1,1,671.500031178562,143.4999931890711A6,6,0,1,1,683.500031178562,143.4999931890711"></path><path id="kity_path_321" fill="none" stroke="gray"></path></g><path id="node_outline5" fill="none" stroke="none" d="M688.5000313711791,134.4999931890711h24a5,5,0,0,1,5,5v8a5,5,0,0,1,-5,5h-24a5,5,0,0,1,-5,-5v-8a5,5,0,0,1,5,-5z"></path><g id="node_text5" fill="black"><text id="kity_text_107" text-rendering="inherit" font-size="12" dy=".8em" y="135.69999321002683" x="688.5000313711791">乘幂</text></g></g><g id="minder_node8"><g id="node_expander6" style="cursor: pointer;" display="none"><path id="kity_path_326" fill="white" stroke="gray" d="M608.5000281199027,175.49999393193315A6,6,0,1,1,596.5000281199027,175.49999393193315A6,6,0,1,1,608.5000281199027,175.49999393193315"></path><path id="kity_path_327" fill="none" stroke="gray"></path></g><path id="node_outline7" fill="none" stroke="none" d="M613.5000302104572,160.49999393193315h102a5,5,0,0,1,5,5v20a5,5,0,0,1,-5,5h-102a5,5,0,0,1,-5,-5v-20a5,5,0,0,1,5,-5z"></path><g id="node_text7" fill="black"><text id="kity_text_111" text-rendering="inherit" font-size="12" dy=".8em" y="167.6999939528889" x="638.5000302104572">转置</text></g><g id="node_priority2"><path id="kity_path_177" fill="#840023" stroke="none" d="M614.0000293279948,178.9999935859125c0,3.866,3.134,7,7,7h6c3.866,0,7,-3.134,7,-7V172.9999935859125H614.0000293279948V178.9999935859125z"></path><path id="kity_path_178" fill="#FF1200" stroke="none" d="M634.0000293279948,175.9999935859125c0,3.866,-3.134,7,-7,7H621.0000293279948c-3.866,0,-7,-3.134,-7,-7V172.9999935859125c0,-3.866,3.134,-7,7,-7h6c3.866,0,7,3.134,7,7V175.9999935859125z" opacity="0.8"></path><text id="kity_text_179" text-rendering="geometricPrecision" x="623.0000293163876" y="175.49999357430528" text-anchor="middle" font-style="italic" font-size="12" fill="white" dy="5">1</text></g><g id="kity_g_222"><g id="kity_g_223"><path id="kity_path_224" fill="rgb(179, 229, 255)" stroke="none" d="M667.5000304444839,162.4999939087187h48v24h-48z"></path><text id="kity_text_225" text-rendering="geometricPrecision" font-size="12" dy="5" x="675.5000304444839" fill="rgb(0, 50, 77)" y="174.4999939087187">定理3</text></g></g></g><g id="minder_node9"><g id="node_expander12" style="cursor: pointer;"><path id="kity_path_344" fill="white" stroke="gray" d="M608.5000281199027,283.4999964390927A6,6,0,1,1,596.5000281199027,283.4999964390927A6,6,0,1,1,608.5000281199027,283.4999964390927"></path><path id="kity_path_345" fill="none" stroke="gray" d="M598.0000281199027,283.4999964390927L607.0000281199027,283.4999964390927"></path></g><path id="node_outline13" fill="none" stroke="none" d="M613.5000302104572,270.4999964390927h69a5,5,0,0,1,5,5v16a5,5,0,0,1,-5,5h-69a5,5,0,0,1,-5,-5v-16a5,5,0,0,1,5,-5z"></path><g id="node_text13" fill="black"><text id="kity_text_123" text-rendering="inherit" font-size="12" dy=".8em" y="275.6999964600484" x="638.5000302104572">逆(除法)</text></g><g id="node_priority3"><path id="kity_path_182" fill="#840023" stroke="none" d="M614.0000293279948,286.999996093072c0,3.866,3.134,7,7,7h6c3.866,0,7,-3.134,7,-7V280.999996093072H614.0000293279948V286.999996093072z"></path><path id="kity_path_183" fill="#FF1200" stroke="none" d="M634.0000293279948,283.999996093072c0,3.866,-3.134,7,-7,7H621.0000293279948c-3.866,0,-7,-3.134,-7,-7V280.999996093072c0,-3.866,3.134,-7,7,-7h6c3.866,0,7,3.134,7,7V283.999996093072z" opacity="0.8"></path><text id="kity_text_184" text-rendering="geometricPrecision" x="623.0000293163876" y="283.4999960814648" text-anchor="middle" font-style="italic" font-size="12" fill="white" dy="5">1</text></g></g><g id="minder_node10"><g id="node_expander7" style="cursor: pointer;" display="none"><path id="kity_path_329" fill="white" stroke="gray" d="M703.5000316428509,213.4999948140819A6,6,0,1,1,691.5000316428509,213.4999948140819A6,6,0,1,1,703.5000316428509,213.4999948140819"></path><path id="kity_path_330" fill="none" stroke="gray"></path></g><path id="node_outline8" fill="none" stroke="none" d="M708.500031835468,198.4999948140819h166a5,5,0,0,1,5,5v20a5,5,0,0,1,-5,5h-166a5,5,0,0,1,-5,-5v-20a5,5,0,0,1,5,-5z"></path><g id="node_text8" fill="black"><text id="kity_text_113" text-rendering="inherit" font-size="12" dy=".8em" y="205.69999483503764" x="708.500031835468">非奇异矩阵</text></g><g id="kity_g_226"><g id="kity_g_227"><path id="kity_path_228" fill="rgb(179, 255, 226)" stroke="none" d="M773.5000341600492,200.49999479086745h48v24h-48z"></path><text id="kity_text_229" text-rendering="geometricPrecision" font-size="12" dy="5" x="781.5000341600492" fill="rgb(0, 77, 47)" y="212.49999479086745">定理5</text></g><g id="kity_g_230"><path id="kity_path_231" fill="rgb(255, 179, 179)" stroke="none" d="M826.5000344492885,200.49999479086745h48v24h-48z"></path><text id="kity_text_232" text-rendering="geometricPrecision" font-size="12" dy="5" x="834.5000344492885" fill="rgb(77, 0, 0)" y="212.49999479086745">定理6</text></g></g></g><g id="minder_node11"><g id="node_expander8" style="cursor: pointer;" display="none"><path id="kity_path_332" fill="white" stroke="gray" d="M703.5000316428509,251.4999956962306A6,6,0,1,1,691.5000316428509,251.4999956962306A6,6,0,1,1,703.5000316428509,251.4999956962306"></path><path id="kity_path_333" fill="none" stroke="gray"></path></g><path id="node_outline9" fill="none" stroke="none" d="M708.500031835468,236.4999956962306h90a5,5,0,0,1,5,5v20a5,5,0,0,1,-5,5h-90a5,5,0,0,1,-5,-5v-20a5,5,0,0,1,5,-5z"></path><g id="node_text9" fill="black"><text id="kity_text_115" text-rendering="inherit" font-size="12" dy=".8em" y="243.69999571718634" x="708.500031835468">行列式</text></g><g id="kity_g_233"><g id="kity_g_234"><path id="kity_path_235" fill="rgb(255, 212, 179)" stroke="none" d="M749.5000341048365,238.49999567301614h49v24h-49z"></path><text id="kity_text_236" text-rendering="geometricPrecision" font-size="12" dy="5" x="757.5000341048365" fill="rgb(77, 33, 0)" y="250.49999567301614">定理4</text></g></g></g><g id="minder_node12"><g id="node_expander9" style="cursor: pointer;" display="none"><path id="kity_path_335" fill="white" stroke="gray" d="M703.5000316428509,283.4999964390927A6,6,0,1,1,691.5000316428509,283.4999964390927A6,6,0,1,1,703.5000316428509,283.4999964390927"></path><path id="kity_path_336" fill="none" stroke="gray"></path></g><path id="node_outline10" fill="none" stroke="none" d="M708.500031835468,274.4999964390927h55a5,5,0,0,1,5,5v8a5,5,0,0,1,-5,5h-55a5,5,0,0,1,-5,-5v-8a5,5,0,0,1,5,-5z"></path><g id="node_text10" fill="black"><text id="kity_text_117" text-rendering="inherit" font-size="12" dy=".8em" y="275.6999964600484" x="708.500031835468">初等矩阵E</text></g></g><g id="minder_node13"><g id="node_expander10" style="cursor: pointer;" display="none"><path id="kity_path_338" fill="white" stroke="gray" d="M703.5000316428509,315.49999718195477A6,6,0,1,1,691.5000316428509,315.49999718195477A6,6,0,1,1,703.5000316428509,315.49999718195477"></path><path id="kity_path_339" fill="none" stroke="gray"></path></g><path id="node_outline11" fill="none" stroke="none" d="M708.500031835468,300.49999718195477h101a5,5,0,0,1,5,5v20a5,5,0,0,1,-5,5h-101a5,5,0,0,1,-5,-5v-20a5,5,0,0,1,5,-5z"></path><g id="node_text11" fill="black"><text id="kity_text_119" text-rendering="inherit" font-size="12" dy=".8em" y="307.6999972029105" x="708.500031835468">计算算法</text></g><g id="kity_g_237"><g id="kity_g_238"><path id="kity_path_239" fill="rgb(196, 179, 255)" stroke="none" d="M761.5000321247073,302.4999971587403h48v24h-48z"></path><text id="kity_text_240" text-rendering="geometricPrecision" font-size="12" dy="5" x="769.5000321247073" fill="rgb(17, 0, 77)" y="314.4999971587403">定理7</text></g></g></g><g id="minder_node14"><g id="node_expander11" style="cursor: pointer;" display="none"><path id="kity_path_341" fill="white" stroke="gray" d="M703.5000316428509,353.4999980641035A6,6,0,1,1,691.5000316428509,353.4999980641035A6,6,0,1,1,703.5000316428509,353.4999980641035"></path><path id="kity_path_342" fill="none" stroke="gray"></path></g><path id="node_outline12" fill="none" stroke="none" d="M708.500031835468,338.4999980641035h178a5,5,0,0,1,5,5v20a5,5,0,0,1,-5,5h-178a5,5,0,0,1,-5,-5v-20a5,5,0,0,1,5,-5z"></path><g id="node_text12" fill="black"><text id="kity_text_121" text-rendering="inherit" font-size="12" dy=".8em" y="345.6999980850593" x="708.500031835468">可逆矩阵特征</text></g><g id="kity_g_241"><g id="kity_g_242"><path id="kity_path_243" fill="rgb(255, 196, 179)" stroke="none" d="M785.500036195391,340.49999804088907h48v24h-48z"></path><text id="kity_text_244" text-rendering="geometricPrecision" font-size="12" dy="5" x="793.500036195391" fill="rgb(77, 17, 0)" y="352.49999804088907">定理8</text></g><g id="kity_g_245"><path id="kity_path_246" fill="rgb(255, 179, 200)" stroke="none" d="M838.5000364846303,340.49999804088907h48v24h-48z"></path><text id="kity_text_247" text-rendering="geometricPrecision" font-size="12" dy="5" x="846.5000364846303" fill="rgb(77, 0, 22)" y="352.49999804088907">定理9</text></g></g></g><g id="minder_node15" opacity="1"><g id="node_expander17" style="cursor: pointer;"><path id="kity_path_359" fill="white" stroke="gray" d="M470.50002792791315,504.50000156948397A6,6,0,1,1,458.50002792791315,504.50000156948397A6,6,0,1,1,470.50002792791315,504.50000156948397"></path><path id="kity_path_360" fill="none" stroke="gray" d="M460.00002792791315,504.50000156948397L469.00002792791315,504.50000156948397"></path></g><path id="node_outline18" fill="rgb(238, 243, 246)" stroke="rgb(115, 161, 191)" d="M474.5000273782955,488.50000156948397h115a3,3,0,0,1,3,3v26a3,3,0,0,1,-3,3h-115a3,3,0,0,1,-3,-3v-26a3,3,0,0,1,3,-3z" stroke-width="1"></path><g id="node_text18" fill="black"><text id="kity_text_133" text-rendering="inherit" font-size="14" dy=".8em" y="495.40000161484625" x="516.5000273782955">因式分解</text></g><g id="node_priority5"><path id="kity_path_192" fill="#006300" stroke="none" d="M492.000026495833,508.0000012234633c0,3.866,3.134,7,7,7h6c3.866,0,7,-3.134,7,-7V502.0000012234633H492.000026495833V508.0000012234633z"></path><path id="kity_path_193" fill="#00AF00" stroke="none" d="M512.000026495833,505.0000012234633c0,3.866,-3.134,7,-7,7H499.000026495833c-3.866,0,-7,-3.134,-7,-7V502.0000012234633c0,-3.866,3.134,-7,7,-7h6c3.866,0,7,3.134,7,7V505.0000012234633z" opacity="0.8"></path><text id="kity_text_194" text-rendering="geometricPrecision" x="501.0000264842258" y="504.5000012118561" text-anchor="middle" font-style="italic" font-size="12" fill="white" dy="5">3</text></g></g><g id="minder_node19"><g id="node_expander24" style="cursor: pointer;"><path id="kity_path_380" fill="white" stroke="gray" d="M360.5000243077153,273.4999962069483A6,6,0,1,1,348.5000243077153,273.4999962069483A6,6,0,1,1,360.5000243077153,273.4999962069483"></path><path id="kity_path_381" fill="none" stroke="gray" d="M350.0000243077153,273.4999962069483L359.0000243077153,273.4999962069483"></path></g><path id="node_outline25" fill="rgb(238, 243, 246)" stroke="rgb(115, 161, 191)" d="M257.50002234076203,257.4999962069483h87a3,3,0,0,1,3,3v26a3,3,0,0,1,-3,3h-87a3,3,0,0,1,-3,-3v-26a3,3,0,0,1,3,-3z" stroke-width="1"></path><g id="node_text25" fill="black"><text id="kity_text_147" text-rendering="inherit" font-size="14" dy=".8em" y="264.3999962523106" x="299.50002234076203">属性</text></g><g id="node_priority6"><path id="kity_path_197" fill="#B25000" stroke="none" d="M275.00002145829956,276.9999958609277c0,3.866,3.134,7,7,7h6c3.866,0,7,-3.134,7,-7V270.9999958609277H275.00002145829956V276.9999958609277z"></path><path id="kity_path_198" fill="#FF962E" stroke="none" d="M295.00002145829956,273.9999958609277c0,3.866,-3.134,7,-7,7H282.00002145829956c-3.866,0,-7,-3.134,-7,-7V270.9999958609277c0,-3.866,3.134,-7,7,-7h6c3.866,0,7,3.134,7,7V273.9999958609277z" opacity="0.8"></path><text id="kity_text_199" text-rendering="geometricPrecision" x="284.00002144669236" y="273.49999584932044" text-anchor="middle" font-style="italic" font-size="12" fill="white" dy="5">4</text></g></g><g id="minder_node20"><g id="node_expander21" style="cursor: pointer;"><path id="kity_path_371" fill="white" stroke="gray" d="M250.50001924445752,216.4999948837252A6,6,0,1,1,238.50001924445752,216.4999948837252A6,6,0,1,1,250.50001924445752,216.4999948837252"></path><path id="kity_path_372" fill="none" stroke="gray" d="M240.00001924445752,216.4999948837252L249.00001924445752,216.4999948837252"></path></g><path id="node_outline22" fill="none" stroke="none" d="M197.5000199728891,207.4999948837252h36a5,5,0,0,1,5,5v8a5,5,0,0,1,-5,5h-36a5,5,0,0,1,-5,-5v-8a5,5,0,0,1,5,-5z"></path><g id="node_text22" fill="black"><text id="kity_text_141" text-rendering="inherit" font-size="12" dy=".8em" y="208.69999490468095" x="197.5000199728891">子空间</text></g></g><g id="minder_node21"><g id="node_expander18" style="cursor: pointer;" display="none"><path id="kity_path_362" fill="white" stroke="gray" d="M188.5000222598253,178.4999940015765A6,6,0,1,1,176.5000222598253,178.4999940015765A6,6,0,1,1,188.5000222598253,178.4999940015765"></path><path id="kity_path_363" fill="none" stroke="gray"></path></g><path id="node_outline19" fill="none" stroke="none" d="M100.5000177210884,169.4999940015765h71a5,5,0,0,1,5,5v8a5,5,0,0,1,-5,5h-71a5,5,0,0,1,-5,-5v-8a5,5,0,0,1,5,-5z"></path><g id="node_text19" fill="black"><text id="kity_text_135" text-rendering="inherit" font-size="12" dy=".8em" y="170.69999402253225" x="100.5000177210884">列空间 Col A</text></g></g><g id="minder_node22"><g id="node_expander19" style="cursor: pointer;" display="none"><path id="kity_path_365" fill="white" stroke="gray" d="M188.5000246440112,210.49999474443857A6,6,0,1,1,176.5000246440112,210.49999474443857A6,6,0,1,1,188.5000246440112,210.49999474443857"></path><path id="kity_path_366" fill="none" stroke="gray"></path></g><path id="node_outline20" fill="none" stroke="none" d="M38.50001628179314,195.49999474443857h133a5,5,0,0,1,5,5v20a5,5,0,0,1,-5,5h-133a5,5,0,0,1,-5,-5v-20a5,5,0,0,1,5,-5z"></path><g id="node_text20" fill="black"><text id="kity_text_137" text-rendering="inherit" font-size="12" dy=".8em" y="202.6999947653943" x="38.50001628179314">零空间 Nul A</text></g><g id="kity_g_252"><g id="kity_g_253"><path id="kity_path_254" fill="rgb(255, 179, 210)" stroke="none" d="M116.50001746510213,197.49999472122414h55v24h-55z"></path><text id="kity_text_255" text-rendering="geometricPrecision" font-size="12" dy="5" x="124.50001746510213" fill="rgb(77, 0, 31)" y="209.49999472122414">定理12</text></g></g></g><g id="minder_node23"><g id="node_expander20" style="cursor: pointer;" display="none"><path id="kity_path_368" fill="white" stroke="gray" d="M188.50001905999693,248.4999956265873A6,6,0,1,1,176.50001905999693,248.4999956265873A6,6,0,1,1,188.50001905999693,248.4999956265873"></path><path id="kity_path_369" fill="none" stroke="gray"></path></g><path id="node_outline21" fill="none" stroke="none" d="M99.500017697874,233.4999956265873h72a5,5,0,0,1,5,5v20a5,5,0,0,1,-5,5h-72a5,5,0,0,1,-5,-5v-20a5,5,0,0,1,5,-5z"></path><g id="node_text21" fill="black"><text id="kity_text_139" text-rendering="inherit" font-size="12" dy=".8em" y="240.69999564754303" x="99.500017697874">基</text></g><g id="kity_g_256"><g id="kity_g_257"><path id="kity_path_258" fill="rgb(219, 179, 255)" stroke="none" d="M116.50001790429428,235.49999560337284h55v24h-55z"></path><text id="kity_text_259" text-rendering="geometricPrecision" font-size="12" dy="5" x="124.50001790429428" fill="rgb(41, 0, 77)" y="247.49999560337284">定理13</text></g></g></g><g id="minder_node24"><g id="node_expander22" style="cursor: pointer;" display="none"><path id="kity_path_374" fill="white" stroke="gray" d="M250.5000227579946,286.499996508736A6,6,0,1,1,238.5000227579946,286.499996508736A6,6,0,1,1,250.5000227579946,286.499996508736"></path><path id="kity_path_375" fill="none" stroke="gray"></path></g><path id="node_outline23" fill="none" stroke="none" d="M109.50001793001837,271.499996508736h124a5,5,0,0,1,5,5v20a5,5,0,0,1,-5,5h-124a5,5,0,0,1,-5,-5v-20a5,5,0,0,1,5,-5z"></path><g id="node_text23" fill="black"><text id="kity_text_143" text-rendering="inherit" font-size="12" dy=".8em" y="278.6999965296917" x="109.50001793001837">维数 dim H</text></g><g id="kity_g_260"><g id="kity_g_261"><path id="kity_path_262" fill="rgb(255, 179, 238)" stroke="none" d="M177.5000187556995,273.49999648552154h56v24h-56z"></path><text id="kity_text_263" text-rendering="geometricPrecision" font-size="12" dy="5" x="185.5000187556995" fill="rgb(77, 0, 60)" y="285.49999648552154">定理14</text></g></g></g><g id="minder_node25"><g id="node_expander23" style="cursor: pointer;" display="none"><path id="kity_path_377" fill="white" stroke="gray" d="M250.50002702443248,324.49999739088474A6,6,0,1,1,238.50002702443248,324.49999739088474A6,6,0,1,1,250.50002702443248,324.49999739088474"></path><path id="kity_path_378" fill="none" stroke="gray"></path></g><path id="node_outline24" fill="none" stroke="none" d="M25.5000159800054,309.49999739088474h208a5,5,0,0,1,5,5v20a5,5,0,0,1,-5,5h-208a5,5,0,0,1,-5,-5v-20a5,5,0,0,1,5,-5z"></path><g id="node_text24" fill="black"><text id="kity_text_145" text-rendering="inherit" font-size="12" dy=".8em" y="316.6999974118405" x="25.5000159800054">秩 rank A</text></g><g id="kity_g_264"><g id="kity_g_265"><path id="kity_path_266" fill="rgb(255, 179, 245)" stroke="none" d="M83.50001644805866,311.4999973676703h90v24h-90z"></path><text id="kity_text_267" text-rendering="geometricPrecision" font-size="12" dy="5" x="91.50001644805866" fill="rgb(77, 0, 66)" y="323.4999973676703">可逆矩阵定理</text></g><g id="kity_g_268"><path id="kity_path_269" fill="rgb(255, 179, 213)" stroke="none" d="M178.5000198455234,311.4999973676703h55v24h-55z"></path><text id="kity_text_270" text-rendering="geometricPrecision" font-size="12" dy="5" x="186.5000198455234" fill="rgb(77, 0, 34)" y="323.4999973676703">定理15</text></g></g></g><g id="minder_node26" opacity="1"><g id="node_expander27" style="cursor: pointer;"><path id="kity_path_389" fill="white" stroke="gray" d="M470.50002792791315,425.4999997355432A6,6,0,1,1,458.50002792791315,425.4999997355432A6,6,0,1,1,470.50002792791315,425.4999997355432"></path><path id="kity_path_390" fill="none" stroke="gray" d="M460.00002792791315,425.4999997355432L469.00002792791315,425.4999997355432"></path></g><path id="node_outline28" fill="rgb(238, 243, 246)" stroke="rgb(115, 161, 191)" d="M474.5000273782955,409.4999997355432h116a3,3,0,0,1,3,3v26a3,3,0,0,1,-3,3h-116a3,3,0,0,1,-3,-3v-26a3,3,0,0,1,3,-3z" stroke-width="1"></path><g id="node_text28" fill="black"><text id="kity_text_153" text-rendering="inherit" font-size="14" dy=".8em" y="416.3999997809055" x="516.5000273782955">分块矩阵</text></g><g id="node_priority7"><path id="kity_path_202" fill="#01467F" stroke="none" d="M492.000026495833,428.9999993895226c0,3.866,3.134,7,7,7h6c3.866,0,7,-3.134,7,-7V422.9999993895226H492.000026495833V428.9999993895226z"></path><path id="kity_path_203" fill="#0074FF" stroke="none" d="M512.000026495833,425.9999993895226c0,3.866,-3.134,7,-7,7H499.000026495833c-3.866,0,-7,-3.134,-7,-7V422.9999993895226c0,-3.866,3.134,-7,7,-7h6c3.866,0,7,3.134,7,7V425.9999993895226z" opacity="0.8"></path><text id="kity_text_204" text-rendering="geometricPrecision" x="501.0000264842258" y="425.49999937791534" text-anchor="middle" font-style="italic" font-size="12" fill="white" dy="5">2</text></g></g><g id="minder_node29"><g id="node_expander35" style="cursor: pointer;"><path id="kity_path_413" fill="white" stroke="gray" d="M360.50002512335783,415.4999995033988A6,6,0,1,1,348.50002512335783,415.4999995033988A6,6,0,1,1,360.50002512335783,415.4999995033988"></path><path id="kity_path_414" fill="none" stroke="gray" d="M350.00002512335783,415.4999995033988L359.00002512335783,415.4999995033988"></path></g><path id="node_outline36" fill="rgb(238, 243, 246)" stroke="rgb(115, 161, 191)" d="M256.5000223175476,399.4999995033988h88a3,3,0,0,1,3,3v26a3,3,0,0,1,-3,3h-88a3,3,0,0,1,-3,-3v-26a3,3,0,0,1,3,-3z" stroke-width="1"></path><g id="node_text36" fill="black"><text id="kity_text_169" text-rendering="inherit" font-size="14" dy=".8em" y="406.39999954876106" x="298.5000223175476">应用</text></g><g id="node_priority8"><path id="kity_path_207" fill="#4720C4" stroke="none" d="M274.0000214350851,418.99999915737817c0,3.866,3.134,7,7,7h6c3.866,0,7,-3.134,7,-7V412.99999915737817H274.0000214350851V418.99999915737817z"></path><path id="kity_path_208" fill="#A464FF" stroke="none" d="M294.0000214350851,415.99999915737817c0,3.866,-3.134,7,-7,7H281.0000214350851c-3.866,0,-7,-3.134,-7,-7V412.99999915737817c0,-3.866,3.134,-7,7,-7h6c3.866,0,7,3.134,7,7V415.99999915737817z" opacity="0.8"></path><text id="kity_text_209" text-rendering="geometricPrecision" x="283.0000214234779" y="415.4999991457709" text-anchor="middle" font-style="italic" font-size="12" fill="white" dy="5">5</text></g></g><g id="minder_node30"><g id="node_expander28" style="cursor: pointer;" display="none"><path id="kity_path_392" fill="white" stroke="gray" d="M249.50002606009207,364.49999831946235A6,6,0,1,1,237.50002606009207,364.49999831946235A6,6,0,1,1,249.50002606009207,364.49999831946235"></path><path id="kity_path_393" fill="none" stroke="gray"></path></g><path id="node_outline29" fill="none" stroke="none" d="M99.500017697874,355.49999831946235h133a5,5,0,0,1,5,5v8a5,5,0,0,1,-5,5h-133a5,5,0,0,1,-5,-5v-8a5,5,0,0,1,5,-5z"></path><g id="node_text29" fill="black"><text id="kity_text_155" text-rendering="inherit" font-size="12" dy=".8em" y="356.6999983404181" x="99.500017697874">电子网络电压与电阻(2.5)</text></g></g><g id="minder_node31"><g id="node_expander29" style="cursor: pointer;" display="none"><path id="kity_path_395" fill="white" stroke="gray" d="M249.50001733899109,396.49999906232443A6,6,0,1,1,237.50001733899109,396.49999906232443A6,6,0,1,1,249.50001733899109,396.49999906232443"></path><path id="kity_path_396" fill="none" stroke="gray"></path></g><path id="node_outline30" fill="none" stroke="none" d="M26.500016003219855,381.49999906232443h206a5,5,0,0,1,5,5v20a5,5,0,0,1,-5,5h-206a5,5,0,0,1,-5,-5v-20a5,5,0,0,1,5,-5z"></path><g id="node_text30" fill="black"><text id="kity_text_157" text-rendering="inherit" font-size="12" dy=".8em" y="388.6999990832802" x="26.500016003219855">列昂惕夫投入产出模型(2.6)</text></g><g id="kity_g_271"><g id="kity_g_272"><path id="kity_path_273" fill="rgb(255, 179, 219)" stroke="none" d="M177.5000181910239,383.49999903911h55v24h-55z"></path><text id="kity_text_274" text-rendering="geometricPrecision" font-size="12" dy="5" x="185.5000181910239" fill="rgb(77, 0, 41)" y="395.49999903911">定理11</text></g></g></g><g id="minder_node32"><g id="node_expander34" style="cursor: pointer;"><path id="kity_path_410" fill="white" stroke="gray" d="M249.50002078978642,467.50000071054967A6,6,0,1,1,237.50002078978642,467.50000071054967A6,6,0,1,1,249.50002078978642,467.50000071054967"></path><path id="kity_path_411" fill="none" stroke="gray" d="M239.00002078978642,467.50000071054967L248.00002078978642,467.50000071054967"></path></g><path id="node_outline35" fill="none" stroke="none" d="M135.50001853359382,458.50000071054967h97a5,5,0,0,1,5,5v8a5,5,0,0,1,-5,5h-97a5,5,0,0,1,-5,-5v-8a5,5,0,0,1,5,-5z"></path><g id="node_text35" fill="black"><text id="kity_text_167" text-rendering="inherit" font-size="12" dy=".8em" y="459.7000007315054" x="135.50001853359382">计算机图形学(2.7)</text></g></g><g id="minder_node33"><g id="node_expander30" style="cursor: pointer;" display="none"><path id="kity_path_398" fill="white" stroke="gray" d="M126.500018938278,428.4999998051865A6,6,0,1,1,114.500018938278,428.4999998051865A6,6,0,1,1,126.500018938278,428.4999998051865"></path><path id="kity_path_399" fill="none" stroke="gray"></path></g><path id="node_outline31" fill="none" stroke="none" d="M60.50001679251079,419.4999998051865h49a5,5,0,0,1,5,5v8a5,5,0,0,1,-5,5h-49a5,5,0,0,1,-5,-5v-8a5,5,0,0,1,5,-5z"></path><g id="node_text31" fill="black"><text id="kity_text_159" text-rendering="inherit" font-size="12" dy=".8em" y="420.6999998261423" x="60.50001679251079">齐次坐标</text></g></g><g id="minder_node34"><g id="node_expander31" style="cursor: pointer;" display="none"><path id="kity_path_401" fill="white" stroke="gray" d="M126.50001812263548,454.50000040876193A6,6,0,1,1,114.50001812263548,454.50000040876193A6,6,0,1,1,126.50001812263548,454.50000040876193"></path><path id="kity_path_402" fill="none" stroke="gray"></path></g><path id="node_outline32" fill="none" stroke="none" d="M61.500016815725246,445.50000040876193h48a5,5,0,0,1,5,5v8a5,5,0,0,1,-5,5h-48a5,5,0,0,1,-5,-5v-8a5,5,0,0,1,5,-5z"></path><g id="node_text32" fill="black"><text id="kity_text_161" text-rendering="inherit" font-size="12" dy=".8em" y="446.70000042971765" x="61.500016815725246">复合变换</text></g></g><g id="minder_node35"><g id="node_expander32" style="cursor: pointer;" display="none"><path id="kity_path_404" fill="white" stroke="gray" d="M126.50001442087319,480.5000010123374A6,6,0,1,1,114.50001442087319,480.5000010123374A6,6,0,1,1,126.50001442087319,480.5000010123374"></path><path id="kity_path_405" fill="none" stroke="gray"></path></g><path id="node_outline33" fill="none" stroke="none" d="M36.50001623536423,471.5000010123374h73a5,5,0,0,1,5,5v8a5,5,0,0,1,-5,5h-73a5,5,0,0,1,-5,-5v-8a5,5,0,0,1,5,-5z"></path><g id="node_text33" fill="black"><text id="kity_text_163" text-rendering="inherit" font-size="12" dy=".8em" y="472.7000010332931" x="36.50001623536423">齐次三维坐标</text></g></g><g id="minder_node36"><g id="node_expander33" style="cursor: pointer;" display="none"><path id="kity_path_407" fill="white" stroke="gray" d="M126.50001812263548,506.5000016159129A6,6,0,1,1,114.50001812263548,506.5000016159129A6,6,0,1,1,126.50001812263548,506.5000016159129"></path><path id="kity_path_408" fill="none" stroke="gray"></path></g><path id="node_outline34" fill="none" stroke="none" d="M61.500016815725246,497.5000016159129h48a5,5,0,0,1,5,5v8a5,5,0,0,1,-5,5h-48a5,5,0,0,1,-5,-5v-8a5,5,0,0,1,5,-5z"></path><g id="node_text34" fill="black"><text id="kity_text_165" text-rendering="inherit" font-size="12" dy=".8em" y="498.7000016368686" x="61.500016815725246">投影变换</text></g></g><g id="minder_node27"><g id="node_expander25" style="cursor: pointer;" display="none"><path id="kity_path_383" fill="white" stroke="gray" d="M609.5000294606936,393.4999989926811A6,6,0,1,1,597.5000294606936,393.4999989926811A6,6,0,1,1,609.5000294606936,393.4999989926811"></path><path id="kity_path_384" fill="none" stroke="gray"></path></g><path id="node_outline26" fill="none" stroke="none" d="M614.5000296533107,384.4999989926811h48a5,5,0,0,1,5,5v8a5,5,0,0,1,-5,5h-48a5,5,0,0,1,-5,-5v-8a5,5,0,0,1,5,-5z" stroke-width="3"></path><g id="node_text26" fill="black"><text id="kity_text_149" text-rendering="inherit" font-size="12" dy=".8em" y="385.6999990136369" x="614.5000296533107">标量乘法</text></g></g><g id="minder_node28"><g id="node_expander26" style="cursor: pointer;" display="none"><path id="kity_path_386" fill="white" stroke="gray" d="M609.5000294606936,425.4999997355432A6,6,0,1,1,597.5000294606936,425.4999997355432A6,6,0,1,1,609.5000294606936,425.4999997355432"></path><path id="kity_path_387" fill="none" stroke="gray"></path></g><path id="node_outline27" fill="none" stroke="none" d="M614.5000296533107,410.4999997355432h109a5,5,0,0,1,5,5v20a5,5,0,0,1,-5,5h-109a5,5,0,0,1,-5,-5v-20a5,5,0,0,1,5,-5z" stroke-width="3"></path><g id="node_text27" fill="black"><text id="kity_text_151" text-rendering="inherit" font-size="12" dy=".8em" y="417.699999756499" x="614.5000296533107">分块乘法</text></g><g id="kity_g_420"><g id="kity_g_421"><path id="kity_path_422" fill="rgb(255, 179, 184)" stroke="none" d="M668.500030781407,412.49999971232876h55v24h-55z"></path><text id="kity_text_423" text-rendering="geometricPrecision" font-size="12" dy="5" x="676.500030781407" fill="rgb(77, 0, 5)" y="424.49999971232876">定理10</text></g></g></g><g id="minder_node16"><g id="node_expander14" style="cursor: pointer;" display="none"><path id="kity_path_350" fill="white" stroke="gray" d="M608.500029437479,491.50000126769623A6,6,0,1,1,596.500029437479,491.50000126769623A6,6,0,1,1,608.500029437479,491.50000126769623"></path><path id="kity_path_351" fill="none" stroke="gray"></path></g><path id="node_outline15" fill="none" stroke="none" d="M613.5000296300962,482.50000126769623h39a5,5,0,0,1,5,5v8a5,5,0,0,1,-5,5h-39a5,5,0,0,1,-5,-5v-8a5,5,0,0,1,5,-5z" stroke-width="3"></path><g id="node_text15" fill="black"><text id="kity_text_127" text-rendering="inherit" font-size="12" dy=".8em" y="483.70000128865195" x="613.5000296300962">LU分解</text></g></g><g id="minder_node17"><g id="node_expander15" style="cursor: pointer;" display="none"><path id="kity_path_353" fill="white" stroke="gray" d="M608.500029437479,517.5000018712717A6,6,0,1,1,596.500029437479,517.5000018712717A6,6,0,1,1,608.500029437479,517.5000018712717"></path><path id="kity_path_354" fill="none" stroke="gray"></path></g><path id="node_outline16" fill="none" stroke="none" d="M613.5000296300962,508.5000018712717h49a5,5,0,0,1,5,5v8a5,5,0,0,1,-5,5h-49a5,5,0,0,1,-5,-5v-8a5,5,0,0,1,5,-5z" stroke-width="3"></path><g id="node_text16" fill="black"><text id="kity_text_129" text-rendering="inherit" font-size="12" dy=".8em" y="509.7000018922274" x="613.5000296300962">分解算法</text></g><g id="kity_g_248" display="none"><g id="kity_g_249"><path id="kity_path_250" fill="rgb(255, 179, 184)" stroke="none" d="M667.5000307581925,504.5000018480573h55v24h-55z"></path><text id="kity_text_251" text-rendering="geometricPrecision" font-size="12" dy="5" x="675.5000307581925" fill="rgb(77, 0, 5)" y="516.5000018480573">定理10</text></g></g></g><g id="minder_node37"><g id="node_expander36" style="cursor: pointer;" display="none"><path id="kity_path_430" fill="white" stroke="gray" d="M609.5000294606936,457.5000004784053A6,6,0,1,1,597.5000294606936,457.5000004784053A6,6,0,1,1,609.5000294606936,457.5000004784053"></path><path id="kity_path_431" fill="none" stroke="gray"></path></g><path id="node_outline37" fill="none" stroke="none" d="M614.5000296533107,448.5000004784053h49a5,5,0,0,1,5,5v8a5,5,0,0,1,-5,5h-49a5,5,0,0,1,-5,-5v-8a5,5,0,0,1,5,-5z" stroke-width="3"></path><g id="node_text37" fill="black"><text id="kity_text_427" text-rendering="inherit" font-size="12" dy=".8em" y="449.70000049936107" x="614.5000296533107">分块的逆</text></g></g></g></g></svg>